<svg width="40" height="40" viewBox="0 0 40 40" fill="none" xmlns="http://www.w3.org/2000/svg"><g clip-path="url(#clip0_14111_119344)"><path d="M20 0C22.6264 0 25.2272 0.517315 27.6537 1.52241C30.0802 2.5275 32.285 4.00069 34.1421 5.85786C35.9993 7.71504 37.4725 9.91982 38.4776 12.3463C39.4827 14.7728 40 17.3736 40 20C40 22.6264 39.4827 25.2272 38.4776 27.6537C37.4725 30.0802 35.9993 32.285 34.1421 34.1421C32.285 35.9993 30.0802 37.4725 27.6537 38.4776C25.2272 39.4827 22.6264 40 20 40V40C14.6957 40 9.60859 37.8929 5.85786 34.1421C2.10714 30.3914 0 25.3043 0 20V20C0 14.6957 2.10714 9.60859 5.85786 5.85786C9.60859 2.10714 14.6957 0 20 0V0Z" fill="#DE5B4B"></path><path d="M27.0303 8.64684C25.6136 8.64543 24.2235 9.03114 23.01 9.76232C21.7966 10.4935 20.8061 11.5423 20.1454 12.7955C19.3344 11.2588 18.0324 10.0378 16.4468 9.3271C14.8612 8.61639 13.0834 8.45688 11.3966 8.874C9.70983 9.29112 8.21124 10.2609 7.13966 11.6287C6.06808 12.9965 5.48519 14.6836 5.48389 16.4212C5.49415 18.1945 6.09086 19.9147 7.181 21.3135L7.1918 21.3274L7.20414 21.3397L19.3539 34.5023L19.3585 34.5077L19.3639 34.5131L19.6355 34.2416L19.3632 34.5139C19.4525 34.5999 19.5548 34.6712 19.6663 34.7253C19.782 34.7875 19.9101 34.8231 20.0413 34.8294C20.1623 34.8332 20.2825 34.8067 20.3907 34.7523C20.5508 34.6629 20.6958 34.5489 20.8204 34.4144L20.825 34.409L20.8296 34.4044L20.5481 34.1429L20.8296 34.4051L33.0836 21.2425L33.0913 21.2348L33.0974 21.2271C34.1933 19.8651 34.7958 18.1723 34.8069 16.4242C34.7962 14.365 33.9734 12.3931 32.5174 10.9369C31.0613 9.48073 29.0895 8.65779 27.0303 8.64684V8.64684ZM31.5916 20.2258L20.0428 32.7643L8.4924 20.3291C7.64026 19.2827 7.17227 17.9759 7.16634 16.6264C7.16277 15.8383 7.31534 15.0574 7.61526 14.3287C7.91518 13.5999 8.35649 12.9378 8.91372 12.3806C9.47094 11.8234 10.133 11.3821 10.8618 11.0822C11.5905 10.7822 12.3714 10.6297 13.1595 10.6332C13.9358 10.6202 14.7069 10.7634 15.4269 11.0541C16.1468 11.3449 16.801 11.7774 17.3506 12.3259C17.9002 12.8744 18.334 13.5278 18.6262 14.2472C18.9184 14.9666 19.063 15.7373 19.0515 16.5137V16.5253C19.048 16.6447 19.0685 16.7635 19.1117 16.8748C19.155 16.9861 19.2202 17.0876 19.3033 17.1733C19.3865 17.259 19.4861 17.3271 19.5961 17.3736C19.706 17.4201 19.8242 17.4441 19.9437 17.4441C20.0631 17.4441 20.1813 17.4201 20.2913 17.3736C20.4013 17.3271 20.5008 17.259 20.584 17.1733C20.6672 17.0876 20.7323 16.9861 20.7756 16.8748C20.8188 16.7635 20.8393 16.6447 20.8358 16.5253C20.8268 15.7326 20.9752 14.946 21.2723 14.211C21.5694 13.4761 22.0094 12.8074 22.5668 12.2436C23.1242 11.6799 23.7878 11.2324 24.5194 10.9269C25.2509 10.6215 26.0358 10.4642 26.8285 10.4642C27.6213 10.4642 28.4062 10.6215 29.1377 10.9269C29.8692 11.2324 30.5329 11.6799 31.0903 12.2436C31.6477 12.8074 32.0876 13.4761 32.3848 14.211C32.6819 14.946 32.8303 15.7326 32.8213 16.5253C32.8664 17.866 32.4302 19.1787 31.5916 20.2258V20.2258Z" fill="#333333"></path></g><defs><clipPath id="clip0_14111_119344"><rect width="40" height="40" fill="white"></rect></clipPath></defs></svg>