<svg width="40" height="40" viewBox="0 0 40 40" fill="none" xmlns="http://www.w3.org/2000/svg"><g clip-path="url(#clip0_14111_119348)"><path d="M20 0C22.6264 0 25.2272 0.517315 27.6537 1.52241C30.0802 2.5275 32.285 4.00069 34.1421 5.85786C35.9993 7.71504 37.4725 9.91982 38.4776 12.3463C39.4827 14.7728 40 17.3736 40 20C40 22.6264 39.4827 25.2272 38.4776 27.6537C37.4725 30.0802 35.9993 32.285 34.1421 34.1421C32.285 35.9993 30.0802 37.4725 27.6537 38.4776C25.2272 39.4827 22.6264 40 20 40V40C14.6957 40 9.60859 37.8929 5.85786 34.1421C2.10714 30.3914 0 25.3043 0 20V20C0 14.6957 2.10714 9.60859 5.85786 5.85786C9.60859 2.10714 14.6957 0 20 0V0Z" fill="#FFC800"></path><path d="M20.366 5.17802C17.4344 5.17798 14.5687 6.04725 12.1313 7.6759C9.69377 9.30455 7.79398 11.6194 6.67212 14.3278C5.55026 17.0362 5.25672 20.0164 5.82862 22.8916C6.40053 25.7668 7.81218 28.4078 9.88509 30.4807C11.958 32.5536 14.599 33.9653 17.4742 34.5372C20.3494 35.1091 23.3296 34.8155 26.038 33.6937C28.7464 32.5718 31.0612 30.672 32.6899 28.2345C34.3185 25.797 35.1878 22.9313 35.1878 19.9998C35.1922 18.0522 34.8118 16.1228 34.0685 14.3226C33.3252 12.5223 32.2336 10.8866 30.8564 9.50943C29.4792 8.13222 27.8435 7.04062 26.0432 6.29731C24.243 5.554 22.3136 5.17362 20.366 5.17802V5.17802ZM33.4089 19.9998C33.399 22.5652 32.6298 25.0703 31.1984 27.1993C29.7669 29.3282 27.7372 30.9857 25.3652 31.9629C22.9931 32.94 20.3849 33.1931 17.8692 32.6902C15.3536 32.1872 13.0431 30.9508 11.229 29.1368C9.415 27.3228 8.17859 25.0123 7.67566 22.4966C7.17274 19.981 7.4258 17.3727 8.40297 15.0007C9.38013 12.6286 11.0376 10.5989 13.1666 9.16746C15.2955 7.73599 17.8006 6.96681 20.366 6.95688C22.0801 6.95223 23.7783 7.28643 25.3628 7.94025C26.9474 8.59407 28.3871 9.55463 29.5991 10.7667C30.8112 11.9788 31.7718 13.4185 32.4256 15.003C33.0794 16.5876 33.4136 18.2857 33.4089 19.9998V19.9998Z" fill="#333333"></path><path d="M26.41 15.7735C26.3019 15.6792 26.1628 15.6281 26.0194 15.63H23.2932C23.1836 15.6317 23.0756 15.6572 22.9768 15.7048C22.8779 15.7523 22.7906 15.8207 22.7208 15.9054L22.7193 15.9069L22.7186 15.9065L20.6385 19.3657H18.7793V13.0339C18.7833 12.9362 18.7671 12.8387 18.7315 12.7476C18.6959 12.6565 18.6418 12.5737 18.5726 12.5046C18.5035 12.4355 18.4207 12.3815 18.3295 12.346C18.2384 12.3105 18.1409 12.2943 18.0432 12.2985H15.7213C15.6235 12.2943 15.526 12.3105 15.4349 12.346C15.3437 12.3815 15.261 12.4355 15.1918 12.5046C15.1226 12.5737 15.0685 12.6565 15.0329 12.7476C14.9973 12.8387 14.9811 12.9362 14.9851 13.0339V26.8653C14.981 26.963 14.9973 27.0606 15.0329 27.1517C15.0684 27.2429 15.1225 27.3257 15.1917 27.3948C15.2609 27.464 15.3437 27.5181 15.4348 27.5537C15.526 27.5892 15.6235 27.6055 15.7213 27.6014H18.0432C18.1409 27.6055 18.2385 27.5892 18.3296 27.5537C18.4208 27.5181 18.5036 27.464 18.5728 27.3948C18.6419 27.3256 18.696 27.2429 18.7316 27.1517C18.7671 27.0606 18.7834 26.963 18.7793 26.8653V23.2603H19.9181L21.8743 27.2694L21.884 27.2889C21.949 27.4093 22.0423 27.5119 22.156 27.5879C22.2528 27.6565 22.3672 27.6961 22.4858 27.7021H25.6152C25.726 27.6999 25.835 27.6736 25.9348 27.6253C26.0345 27.5769 26.1225 27.5075 26.1929 27.4219L26.2252 27.3731C26.2914 27.2652 26.3263 27.141 26.3259 27.0144C26.3255 26.8879 26.2898 26.7639 26.223 26.6564L23.6576 21.8218L26.4708 16.8725L26.4761 16.8748L26.5279 16.7719C26.5921 16.6642 26.6268 16.5415 26.6286 16.4162C26.6348 16.1827 26.5573 15.9547 26.41 15.7735ZM23.0334 26.2305L21.0893 22.2455L21.0765 22.2184C21.01 22.0874 20.9081 21.9775 20.7824 21.9015C20.6566 21.8254 20.5121 21.7861 20.3651 21.788H18.0432C17.9454 21.7839 17.8479 21.8001 17.7568 21.8356C17.6656 21.8712 17.5829 21.9252 17.5137 21.9945C17.4446 22.0637 17.3906 22.1465 17.3551 22.2377C17.3197 22.3288 17.3035 22.4264 17.3078 22.5241V26.2305H16.4574V13.7693H17.3078V20.1008C17.3037 20.1985 17.3199 20.296 17.3555 20.3871C17.391 20.4782 17.445 20.5609 17.5141 20.6301C17.5832 20.6993 17.6659 20.7534 17.757 20.789C17.848 20.8246 17.9455 20.8409 18.0432 20.8369H21.072C21.182 20.8348 21.2903 20.8091 21.3895 20.7614C21.4886 20.7137 21.5764 20.6452 21.6467 20.5605L23.7267 17.1009H24.8085L22.307 21.3673C22.2202 21.4676 22.1743 21.5968 22.1785 21.7294C22.1815 21.8662 22.2157 22.0006 22.2784 22.1223L24.4261 26.2305L23.0334 26.2305Z" fill="#333333"></path></g><defs><clipPath id="clip0_14111_119348"><rect width="40" height="40" fill="white"></rect></clipPath></defs></svg>