<svg width="40" height="40" viewBox="0 0 40 40" fill="none" xmlns="http://www.w3.org/2000/svg"><g clip-path="url(#clip0_606_9632)"><g clip-path="url(#clip1_606_9632)"><path d="M20 40C31.0457 40 40 31.0457 40 20C40 8.9543 31.0457 0 20 0C8.9543 0 0 8.9543 0 20C0 31.0457 8.9543 40 20 40Z" fill="#3C839C"></path><path d="M11.8934 27.2355H8.95117V11.8755H15.2267C18.8712 11.8755 20.5334 14.3733 20.5334 17.1822C20.5334 19.9733 18.8623 22.5155 15.2267 22.5155H11.8934V27.2355V27.2355ZM15.2356 19.6C16.8623 19.6 17.6089 18.3733 17.6089 17.1822C17.6089 16 16.8623 14.7911 15.2356 14.7911H11.9023V19.6H15.2356Z" stroke="black" stroke-miterlimit="10"></path><path d="M28.2932 19.8845H32.0265V22.5156H28.2932V26.2489H25.662V22.5156H21.9287V19.8845H25.662V16.1511H28.2932V19.8845V19.8845Z" stroke="black" stroke-miterlimit="10"></path></g></g><defs><clipPath id="clip0_606_9632"><rect width="40" height="40" fill="white"></rect></clipPath><clipPath id="clip1_606_9632"><rect width="40" height="40" fill="white"></rect></clipPath></defs></svg>