<svg width="40" height="40" viewBox="0 0 40 40" fill="none" xmlns="http://www.w3.org/2000/svg"><g clip-path="url(#clip0_14111_119353)"><path d="M20 0C22.6264 0 25.2272 0.517315 27.6537 1.52241C30.0802 2.5275 32.285 4.00069 34.1421 5.85786C35.9993 7.71504 37.4725 9.91982 38.4776 12.3463C39.4827 14.7728 40 17.3736 40 20C40 22.6264 39.4827 25.2272 38.4776 27.6537C37.4725 30.0802 35.9993 32.285 34.1421 34.1421C32.285 35.9993 30.0802 37.4725 27.6537 38.4776C25.2272 39.4827 22.6264 40 20 40V40C14.6957 40 9.60859 37.8929 5.85786 34.1421C2.10714 30.3914 0 25.3043 0 20V20C0 14.6957 2.10714 9.60859 5.85786 5.85786C9.60859 2.10714 14.6957 0 20 0V0Z" fill="#61DFFF"></path><path d="M28.8458 7.84608H10.9997C10.6957 7.84279 10.3942 7.90023 10.1127 8.01503C9.83125 8.12984 9.57554 8.29969 9.36059 8.51464C9.14564 8.72959 8.97578 8.9853 8.86098 9.26677C8.74617 9.54824 8.68873 9.8498 8.69203 10.1538V29.9998C8.68873 30.3038 8.74617 30.6054 8.86098 30.8868C8.97578 31.1683 9.14564 31.424 9.36059 31.6389C9.57554 31.8539 9.83125 32.0238 10.1127 32.1386C10.3942 32.2534 10.6957 32.3108 10.9997 32.3075H28.8458C29.1498 32.3109 29.4514 32.2535 29.7329 32.1388C30.0144 32.024 30.2702 31.8542 30.4851 31.6392C30.7001 31.4242 30.87 31.1685 30.9847 30.8869C31.0995 30.6054 31.1569 30.3038 31.1535 29.9998V10.1538C31.1455 9.54421 30.8998 8.96186 30.4687 8.5308C30.0377 8.09974 29.4553 7.85405 28.8458 7.84608V7.84608ZM10.2305 10.1538C10.2379 9.95212 10.3214 9.76076 10.464 9.61808C10.6067 9.4754 10.7981 9.39197 10.9997 9.38454H28.8458C29.0474 9.39215 29.2386 9.47564 29.3813 9.61828C29.5239 9.76092 29.6074 9.95218 29.615 10.1538V29.9998C29.6074 30.2014 29.5239 30.3927 29.3813 30.5353C29.2386 30.678 29.0474 30.7614 28.8458 30.7691H10.9997C10.7981 30.7616 10.6067 30.6782 10.464 30.5355C10.3214 30.3928 10.2379 30.2015 10.2305 29.9998V10.1538Z" fill="#333333"></path><path d="M16.7729 17.2356L16.8052 17.2725C16.8803 17.3441 16.9659 17.4038 17.059 17.4494C17.1744 17.5102 17.3033 17.5409 17.4336 17.5387H17.5798L17.6952 17.5056C19.0166 16.951 20.5002 16.9234 21.8413 17.4287C22.0109 17.506 22.2038 17.5148 22.3798 17.4533C22.5471 17.4016 22.6893 17.2898 22.779 17.1394L25.0098 14.0625L25.0359 14.0179C25.1162 13.8572 25.1445 13.6755 25.1169 13.498C25.0894 13.3205 25.0073 13.1559 24.8821 13.0271C23.5331 11.7766 21.7623 11.0803 19.9229 11.0772C18.9727 11.0764 18.0321 11.2673 17.1574 11.6385C16.2827 12.0096 15.4918 12.5533 14.8321 13.2371C14.7577 13.2907 14.6958 13.3597 14.6504 13.4393C14.605 13.5189 14.5772 13.6074 14.569 13.6987C14.5521 13.8617 14.5823 14.0261 14.656 14.1725L16.7729 17.2356ZM20.4744 13.0648C20.3232 12.9287 20.127 12.8534 19.9236 12.8534C19.7202 12.8534 19.524 12.9287 19.3729 13.0648C19.3018 13.1376 19.246 13.2238 19.2085 13.3183C19.171 13.4129 19.1526 13.5139 19.1544 13.6156V15.5533C18.6554 15.597 18.1631 15.6985 17.6875 15.8556L16.2913 13.9133C17.2922 13.0857 18.5473 12.6275 19.8459 12.6156C21.097 12.6264 22.3126 13.0324 23.319 13.7756L21.9167 15.7871C21.5157 15.6748 21.1057 15.5976 20.6913 15.5564V13.6156C20.6933 13.514 20.6752 13.413 20.638 13.3185C20.6007 13.224 20.5451 13.1378 20.4744 13.0648V13.0648Z" fill="#333333"></path></g><defs><clipPath id="clip0_14111_119353"><rect width="40" height="40" fill="white"></rect></clipPath></defs></svg>