<svg width="40" height="40" viewBox="0 0 40 40" fill="none" xmlns="http://www.w3.org/2000/svg"><g clip-path="url(#clip0_14111_119358)"><path d="M20 0C22.6264 0 25.2272 0.517315 27.6537 1.52241C30.0802 2.5275 32.285 4.00069 34.1421 5.85786C35.9993 7.71504 37.4725 9.91982 38.4776 12.3463C39.4827 14.7728 40 17.3736 40 20C40 22.6264 39.4827 25.2272 38.4776 27.6537C37.4725 30.0802 35.9993 32.285 34.1421 34.1421C32.285 35.9993 30.0802 37.4725 27.6537 38.4776C25.2272 39.4827 22.6264 40 20 40V40C14.6957 40 9.60859 37.8929 5.85786 34.1421C2.10714 30.3914 0 25.3043 0 20V20C0 14.6957 2.10714 9.60859 5.85786 5.85786C9.60859 2.10714 14.6957 0 20 0V0Z" fill="#75C26D"></path><path d="M30.996 11.363C30.9579 11.084 30.8425 10.8207 30.6626 10.6018C30.4826 10.3829 30.245 10.2169 29.9756 10.1219C29.6893 9.99822 29.3703 9.96768 29.0651 10.0347C28.7599 10.1018 28.4845 10.263 28.2789 10.4948L27.9895 10.7842C27.4361 11.3971 26.8063 11.9388 26.1152 12.3966C25.4571 12.6743 24.7007 13.0472 23.9681 13.4068C23.1926 13.7378 22.4753 14.1878 21.8432 14.74C21.4825 15.0308 21.1905 15.3956 20.9877 15.8088C20.785 16.222 20.6762 16.6737 20.669 17.1325C20.6268 17.6655 20.7178 18.2006 20.9341 18.6911C21.1503 19.1815 21.4853 19.6125 21.9098 19.9463L21.9209 19.958C20.8085 21.6681 19.8811 23.4881 19.1538 25.3881C18.6297 23.9302 18.062 22.462 17.4943 20.9955C16.4205 18.3083 15.1188 15.7147 13.603 13.2422C13.4085 12.8127 13.1579 12.4099 12.8577 12.044C12.8077 11.9379 12.7362 11.843 12.6476 11.765C12.5589 11.6871 12.4551 11.6278 12.3423 11.5908C12.1577 11.5302 11.9592 11.5229 11.7705 11.5697C11.5817 11.6165 11.4105 11.7154 11.2771 11.8549C11.1437 11.9944 11.0537 12.1685 11.0176 12.3567C10.9816 12.5449 11.0011 12.7393 11.0737 12.917C11.0989 13.0504 11.1602 13.1747 11.2513 13.2766C12.003 14.428 12.7237 15.6496 13.5126 17.106C15.2628 20.5702 16.701 24.1786 17.8107 27.8899C17.8625 28.1239 17.9292 28.3545 18.0105 28.5802C18.0819 28.7771 18.1404 28.9783 18.1857 29.1825C18.2099 29.4076 18.3182 29.6159 18.4896 29.7669C18.661 29.918 18.8833 30.001 19.1134 30C19.1882 30.0001 19.2628 29.9931 19.3362 29.9789C19.5372 29.96 19.7267 29.8781 19.8769 29.7453C20.0271 29.6124 20.1299 29.4357 20.1703 29.241C20.2664 28.9879 20.3484 28.7298 20.416 28.4679C20.4783 28.2238 20.5548 27.9834 20.6452 27.7479C21.3458 25.4356 22.3876 23.237 23.7374 21.2225C24.5539 21.5684 25.4458 21.7066 26.3308 21.6242C26.9086 21.6021 27.4715 21.4382 27.9684 21.1473C28.4653 20.8564 28.8803 20.4478 29.1756 19.9588C29.6471 19.2125 29.9807 18.3901 30.1611 17.5296C30.3372 16.5833 31 12.3444 31 11.4543L30.996 11.363ZM28.7657 12.7524C28.6071 14.0005 27.9792 16.4913 27.9728 16.5186C27.8323 17.1764 27.5987 17.8116 27.2791 18.4056C27.1279 18.7217 26.8803 18.9835 26.5708 19.1547C26.2613 19.3258 25.9052 19.3977 25.5522 19.3604C25.3191 19.3144 25.0924 19.2699 24.8696 19.2146C25.0067 19.0585 25.1423 18.9025 25.239 18.766L26.5742 17.4461C26.6957 17.29 26.7756 17.1064 26.8067 16.9121C26.8377 16.7178 26.8188 16.519 26.7518 16.3337C26.6962 16.1884 26.6056 16.0586 26.4876 15.9554C26.3696 15.8523 26.2279 15.7789 26.0747 15.7416C25.8935 15.677 25.6961 15.6706 25.5109 15.7233C25.3257 15.776 25.1622 15.8851 25.044 16.0349C24.3586 16.7105 23.7107 17.422 23.1031 18.1661C22.8551 17.891 22.7106 17.5404 22.6939 17.1731C22.6859 16.942 22.7394 16.7129 22.8492 16.5085C22.9589 16.3041 23.121 16.1314 23.3195 16.0076C23.806 15.6817 24.3138 15.3875 24.8394 15.1269C25.4858 14.7841 26.1133 14.4078 26.7193 13.9997C27.195 13.6877 27.6509 13.3998 27.9776 13.2196C28.252 13.0838 28.5155 12.9276 28.7657 12.7524V12.7524Z" fill="#333333"></path></g><defs><clipPath id="clip0_14111_119358"><rect width="40" height="40" fill="white"></rect></clipPath></defs></svg>