<svg width=" 22" height="26" viewBox="0 0 22 26" fill="none" xmlns="http://www.w3.org/2000/svg">
<path fill-rule="evenodd" clip-rule="evenodd" d="M10.9346 6.08598C12.4003 6.2074 13.8661 5.35746 14.7822 4.27985C15.683 3.1719 16.2784 1.6845 16.1258 0.166748C14.828 0.227458 13.2248 1.01669 12.3087 2.12465C11.469 3.08083 10.7514 4.62894 10.9346 6.08598ZM12.6891 7.13183C13.6408 6.76034 14.8191 6.30043 16.1103 6.3743C16.9348 6.43501 19.3167 6.67785 20.8435 8.92412C20.8365 8.92935 20.821 8.93937 20.798 8.95423C20.4202 9.19842 18.0206 10.7496 18.0494 13.8113C18.0781 17.4589 21.0671 18.8192 21.4582 18.9971C21.4837 19.0087 21.4981 19.0153 21.5 19.0172C21.4983 19.0221 21.4953 19.0319 21.4909 19.0462C21.4128 19.2971 20.8987 20.9505 19.7289 22.6446C18.6449 24.223 17.5303 25.7712 15.7592 25.8015C14.9257 25.8163 14.3643 25.5751 13.7796 25.3239C13.1648 25.0598 12.5243 24.7846 11.5146 24.7846C10.4688 24.7846 9.79895 25.0672 9.15417 25.3391C8.59411 25.5754 8.05294 25.8036 7.30063 25.8319C5.5906 25.8926 4.29281 24.1623 3.20877 22.5839C0.994893 19.3966 -0.69987 13.5988 1.59035 9.683C2.70492 7.7251 4.73559 6.49572 6.91893 6.46537C7.87147 6.44815 8.77981 6.80686 9.57431 7.12061C10.1807 7.36006 10.7207 7.57333 11.1635 7.57333C11.558 7.57333 12.0767 7.37089 12.6891 7.13183Z" fill="#ece3ce"></path>
</svg>