<?xml version="1.0" encoding="UTF-8"?>
<svg width="30px" height="34px" viewBox="0 0 30 34" version="1.1" xmlns="http://www.w3.org/2000/svg" xmlns:xlink="http://www.w3.org/1999/xlink">
    <title>1298BB9F-26CC-4BCB-ACEC-D9638993E255</title>
    <defs>
        <polygon id="path-1" points="0.00384394537 0.1888125 13.9624655 0.1888125 13.9624655 18.8408038 0.00384394537 18.8408038"></polygon>
        <polygon id="path-3" points="0.148996257 0.141238849 23.8345882 0.141238849 23.8345882 18.472218 0.148996257 18.472218"></polygon>
    </defs>
    <g id="final-" stroke="none" strokWidth="1" fill="none" fill-rule="evenodd">
        <g id="menu-popup-1-2" transform="translate(-545.000000, -1360.000000)">
            <g id="Group-12" transform="translate(545.000000, 1360.314602)">
                <g id="Heating-instruction-icon">
                    <g id="Group-3" transform="translate(8.000000, 0.000000)">
                        <g id="Fill-1-Clipped">
                            <mask id="mask-2" fill="white">
                                <use xlink:href="#path-1"></use>
                            </mask>
                            <g id="path-1"></g>
                            <path d="M5.43598276,18.5966537 C5.43598276,18.5966537 2.91139655,15.3794787 7.50532758,11.8362162 C7.50532758,11.8362162 6.8845,13.8316913 8.70570693,15.2163162 C10.5271552,16.6009412 9.24374137,18.3520287 8.70570693,18.8408038 C8.70570693,18.8408038 13.9624655,17.4155662 13.9624655,12.7729162 C13.9624655,12.7729162 13.5485,10.4107413 12.8448793,9.35196628 C12.8448793,9.35196628 13.2170862,10.4107413 12.5552241,10.3701288 C11.8928793,10.3292787 11.5617069,8.00819128 11.0649483,6.66417872 C11.0649483,6.66417872 10.7752931,8.29295372 9.86481033,7.72295372 C9.38977588,7.42560378 9.78177588,4.13907875 8.83001725,2.63237875 C8.83001725,2.63237875 8.66443105,3.20261625 8.29198275,2.91737875 C8.29198275,2.91737875 7.00856895,0.79959125 5.60132759,0.18874125 C5.60132759,0.18874125 6.76067242,2.59152875 5.93274138,4.05761625 C5.93274138,4.05761625 5.18760345,6.41979122 4.19432759,6.54210378 C4.19432759,6.54210378 2.53894827,5.64577875 4.19432759,4.50554125 C4.19432759,4.50554125 2.45567241,4.26115375 2.04194827,6.46040372 C1.62798276,8.65965372 2.91139655,9.71842878 2.66277586,11.3476787 C2.41439655,12.9764537 0.758775863,12.2841413 1.04867241,11.1845162 C1.04867241,11.1845162 0.758775863,10.9809787 1.21401724,9.79989128 C1.21401724,9.79989128 -0.772534484,11.5103662 0.344810345,14.1575413 C1.46239655,16.8047162 2.20753448,17.5378787 5.43598276,18.5966537" id="Fill-1" fill="#FFFFFF" fill-rule="nonzero" mask="url(#mask-2)"></path>
                        </g>
                    </g>
                    <path d="M0,14.1724002 C0,14.1724002 0.0843401379,14.6523597 3.94989127,18.4324206 C7.14857767,21.5602228 9.68155459,23.1043692 10.5642377,22.7595371 C11.4466897,22.4144712 13.9186645,22.7109099 15.9786435,24.8801959 C17.3588178,26.3334 21.4487368,31.4130687 22.6565338,30.9730863 C23.8643308,30.533104 24.6282444,30.1684003 23.3056062,28.3554018 C21.982968,26.5428709 3.36089672,15.0778474 3.36089672,15.0778474 C3.36089672,15.0778474 0.388888909,13.4843726 0,14.1724002" id="Fill-4" fill="#FFFFFF" fill-rule="nonzero"></path>
                    <g id="Group-8" transform="translate(6.000000, 14.000000)">
                        <g id="Fill-6-Clipped">
                            <mask id="mask-4" fill="white">
                                <use xlink:href="#path-3"></use>
                            </mask>
                            <g id="path-3"></g>
                            <path d="M12.8187059,9.74380553 C13.0231765,9.8823472 13.258,9.93411808 13.4768235,10.0466528 C14.9078823,10.7823819 16.4163529,9.70759026 16.4163529,9.70759026 L23.8347059,2.57050695 C23.7003529,2.37654861 17.394,7.49481252 17.394,7.49481252 C17.2271765,7.61828471 16.9436471,7.28529863 16.9436471,7.28529863 C16.8241177,7.11272917 16.7323529,6.7427986 16.8994118,6.61956947 L23.1243529,1.45147917 C22.99,1.25752083 16.2003529,5.88165278 16.2003529,5.88165278 C16.0332941,6.005125 15.6641177,5.72706945 15.6641177,5.72706945 C15.6151765,5.67384028 15.4372941,5.4385625 15.4267059,5.23050695 C15.4267059,5.23050695 15.4582353,5.07349306 15.6250588,4.95002083 L22.1257647,0.146513889 C21.9914118,-0.0476875 13.3554118,5.1848125 13.3554118,5.1848125 C13.3554118,5.1848125 12.334,5.86706944 11.9749412,7.60831947 C11.9241177,7.85526386 11.9121177,8.27890971 11.9732941,8.52342362 C12.0243529,8.72759028 10.998,9.85415278 7.066,11.9757847 C1.44858823,15.0062014 -0.165529412,16.9671736 0.197529412,18.2339792 C1.24105882,18.9976597 3.55870588,18.0521736 8.14788234,13.5374167 C11.3605882,10.3772083 12.6481177,9.62811111 12.8187059,9.74380553" id="Fill-6" fill="#FFFFFF" fill-rule="nonzero" mask="url(#mask-4)"></path>
                        </g>
                    </g>
                </g>
            </g>
        </g>
    </g>
</svg>